<svg xmlns="http://www.w3.org/2000/svg" viewBox="0 0 200 200">
  <defs>
    <linearGradient id="bg" x1="0" y1="0" x2="1" y2="1">
      <stop offset="0%" stop-color="#4CAF50"/>
      <stop offset="100%" stop-color="#2E7D32"/>
    </linearGradient>
  </defs>
  <rect width="200" height="200" rx="32" fill="url(#bg)"/>
  <g fill="none" stroke="white" stroke-linecap="round" stroke-linejoin="round">
    <!-- Outer U stroke -->
    <path d="M48 40 Q48 145 48 150 Q48 175 100 175 Q152 175 152 150 L152 80" stroke-width="11"/>
    <!-- Middle U stroke -->
    <path d="M70 52 Q70 140 70 148 Q70 162 100 162 Q130 162 130 148 L130 80" stroke-width="11"/>
    <!-- Inner U stroke -->
    <path d="M92 64 Q92 135 92 145 Q92 152 100 152 Q108 152 108 145 L108 80" stroke-width="11"/>
  </g>
  <!-- Arrow head -->
  <polygon points="130,38 142,60 130,52 118,60" fill="white"/>
</svg>
